<svg aria-hidden="true" style="position: absolute; width: 0; height: 0; overflow: hidden;" version="1.1" xmlns="http://www.w3.org/2000/svg" xmlns:xlink="http://www.w3.org/1999/xlink">
<defs>

<!-- Social -->
<symbol id="icon-facebook" viewBox="0 0 24 24">
<path d="M21.82,0H2.18A2.19,2.19,0,0,0,0,2.18V21.82A2.19,2.19,0,0,0,2.18,24H13.09V14.18H9.82V10.91h3.27V9.15c0-3.33,1.62-4.79,4.39-4.79a14.78,14.78,0,0,1,2.35.15V7.64H18c-1.18,0-1.59.62-1.59,1.87v1.4H19.8l-.46,3.27h-3V24h5.46A2.19,2.19,0,0,0,24,21.82V2.18A2.19,2.19,0,0,0,21.82,0Z"/>
</symbol>

<symbol id="icon-facebook-word" viewBox="0 0 12 24">
<path d="M3,8H0v4H3V24H8V12h3.64L12,8H8V6.33C8,5.38,8.19,5,9.11,5H12V0H8.19C4.6,0,3,1.58,3,4.61Z"/>
</symbol>

<symbol id="icon-twitter" viewBox="0 0 24 20">
<path d="M24 2.557a9.83 9.83 0 01-2.828.775A4.932 4.932 0 0023.337.608a9.864 9.864 0 01-3.127 1.195A4.916 4.916 0 0016.616.248c-3.179 0-5.515 2.966-4.797 6.045A13.978 13.978 0 011.671 1.149a4.93 4.93 0 001.523 6.574 4.903 4.903 0 01-2.229-.616c-.054 2.281 1.581 4.415 3.949 4.89a4.935 4.935 0 01-2.224.084 4.928 4.928 0 004.6 3.419A9.9 9.9 0 010 17.54a13.94 13.94 0 007.548 2.212c9.142 0 14.307-7.721 13.995-14.646A10.025 10.025 0 0024 2.557z"/>
</symbol>

<symbol id="icon-youtube" viewBox="0 0 24 16.81">
<path d="M23.47,2.63A3,3,0,0,0,21.35.51C19.48,0,12,0,12,0S4.49,0,2.63.52A3,3,0,0,0,.51,2.65C-.06,6-.28,11,.52,14.18A3,3,0,0,0,2.64,16.3c1.87.51,9.36.51,9.36.51s7.5,0,9.36-.51a3,3,0,0,0,2.13-2.12A32.47,32.47,0,0,0,23.47,2.63ZM9.6,12V4.8l6.22,3.6Z"/>
</symbol>

<symbol id="icon-instagram" viewBox="0 0 24 24">
<path d="M12,2.16c3.2,0,3.58,0,4.85.07a6.67,6.67,0,0,1,2.23.42,3.69,3.69,0,0,1,1.38.89,3.69,3.69,0,0,1,.89,1.38,6.67,6.67,0,0,1,.42,2.23c.06,1.27.07,1.65.07,4.85s0,3.58-.07,4.85a6.67,6.67,0,0,1-.42,2.23,4,4,0,0,1-2.27,2.27,6.67,6.67,0,0,1-2.23.42c-1.27.06-1.65.07-4.85.07s-3.58,0-4.85-.07a6.67,6.67,0,0,1-2.23-.42,3.69,3.69,0,0,1-1.38-.89,3.69,3.69,0,0,1-.89-1.38,6.67,6.67,0,0,1-.42-2.23c-.06-1.27-.07-1.65-.07-4.85s0-3.58.07-4.85a6.67,6.67,0,0,1,.42-2.23,3.69,3.69,0,0,1,.89-1.38,3.69,3.69,0,0,1,1.38-.89,6.67,6.67,0,0,1,2.23-.42C8.42,2.17,8.8,2.16,12,2.16M12,0C8.74,0,8.33,0,7.05.07A8.76,8.76,0,0,0,4.14.63,6.07,6.07,0,0,0,.63,4.14,8.76,8.76,0,0,0,.07,7.05C0,8.33,0,8.74,0,12S0,15.67.07,17a8.76,8.76,0,0,0,.56,2.91,6.07,6.07,0,0,0,3.51,3.51,8.76,8.76,0,0,0,2.91.56C8.33,24,8.74,24,12,24s3.67,0,4.95-.07a8.76,8.76,0,0,0,2.91-.56,6.13,6.13,0,0,0,3.51-3.51A8.76,8.76,0,0,0,23.93,17C24,15.67,24,15.26,24,12s0-3.67-.07-4.95a8.76,8.76,0,0,0-.56-2.91A6.07,6.07,0,0,0,19.86.63,8.76,8.76,0,0,0,17,.07C15.67,0,15.26,0,12,0Z"/><path d="M12,5.84A6.16,6.16,0,1,0,18.16,12h0A6.16,6.16,0,0,0,12,5.84ZM12,16a4,4,0,1,1,4-4A4,4,0,0,1,12,16Z"/><circle cx="18.41" cy="5.59" r="1.44"/>
</symbol>

<!-- Icons -->
<symbol id="icon-hamburger" viewBox="0 0 20 14.8">
<path d="M20,8.8H0V6.1h20V8.8z M20,0H0v2.7h20V0z M20,12.1H0v2.7h20V12.1z"/>
</symbol>

<symbol id="icon-cart" viewBox="0 0 24 20">
<path d="M24.06,5.18A1.14,1.14,0,0,0,23.34,5H7.48c-.1,0-.14,0-.16-.13s-.06-.35-.1-.53C7,3.18,6.75,2,6.51.84a1,1,0,0,0-1-.83h-4a1,1,0,0,0-1,.67A1,1,0,0,0,.84,1.79a1.09,1.09,0,0,0,.77.26H4.39c.36,0,.28,0,.34.28q.6,3,1.19,5.94t1.22,6.1a3.16,3.16,0,0,0,1.22,2.06,3.11,3.11,0,0,0,2,.59h9.13l.69,0a3,3,0,0,0,2.7-2.24c.22-.94.38-1.9.56-2.85.36-1.87.71-3.73,1.07-5.6A1.05,1.05,0,0,0,24.06,5.18ZM22,8.51c-.34,1.8-.69,3.59-1,5.39a1.29,1.29,0,0,1-.38.85,1.09,1.09,0,0,1-.69.24H10.3a1,1,0,0,1-1.13-.92c-.47-2.29-.92-4.58-1.38-6.87a.57.57,0,0,1,0-.14H22.25C22.15,7.55,22.06,8,22,8.51Z" transform="translate(-0.5 0)"/><path d="M22.51,21a2,2,0,1,1-2-2A2,2,0,0,1,22.51,21Z" transform="translate(-0.5 0)"/><path d="M11.52,21a2,2,0,1,1-2-2A2,2,0,0,1,11.52,21Z" transform="translate(-0.5 0)"/>
</symbol>

<symbol id="icon-computer" viewBox="0 0 20 19">
<path d="M19.6445 10.2915C19.6147 10.188 19.5525 10.0966 19.4671 10.0307C18.7419 9.47168 17.9973 9.16426 17.2593 9.09492C17.2593 9.09492 17.161 9.0791 16.9243 9.0791C16.6874 9.0791 16.5667 9.09451 16.5667 9.09451C15.8551 9.17843 15.1425 9.49178 14.4433 10.0307C14.3578 10.0965 14.2957 10.188 14.2659 10.2915C13.9227 11.4812 13.8312 12.6224 13.9776 13.883C14.107 14.9974 14.4141 16.1159 14.7723 17.3576C14.8021 17.4612 14.8643 17.5526 14.9496 17.6184C15.4987 18.0418 16.2109 18.2747 16.9551 18.2747C17.6992 18.2747 18.4116 18.0418 18.9607 17.6185C19.0461 17.5527 19.1082 17.4612 19.1381 17.3577C19.4963 16.1158 19.8034 14.9974 19.9328 13.8831C20.0792 12.6224 19.9877 11.4811 19.6445 10.2915ZM17.3983 12.3574C17.3983 12.6022 17.1998 12.8006 16.9551 12.8006C16.7103 12.8006 16.512 12.6022 16.512 12.3574V10.5091C16.512 10.2644 16.7103 10.0659 16.9551 10.0659C17.1998 10.0659 17.3983 10.2644 17.3983 10.5091V12.3574Z"/>
<path d="M13.583 17.0868H12.7839L12.1244 14.8446H13.4705C13.4284 14.6043 13.3925 14.3641 13.3644 14.123C13.2795 13.3916 13.2692 12.6969 13.3347 12.0111H1.5456V2.12031H17.5168V8.46947C18.0371 8.52166 18.5539 8.67359 19.0624 8.92259V1.34751C19.0624 0.920715 18.7163 0.574707 18.2896 0.574707H0.772799C0.346008 0.574707 0 0.920715 0 1.34751V14.0718C0 14.4987 0.346008 14.8446 0.772799 14.8446H6.93788L6.27848 17.0868H5.47951C5.27662 17.0868 5.11212 17.2513 5.11212 17.4542V18.0583C5.11212 18.2612 5.27662 18.4257 5.47951 18.4257H13.583C13.7859 18.4257 13.9503 18.2612 13.9503 18.0583V17.4542C13.9502 17.2513 13.7858 17.0868 13.583 17.0868Z" />
</symbol>

<symbol id="icon-config" viewBox="0 0 20 21">
<path d="M19.9371 9.38956C19.9056 9.10846 19.5777 8.89699 19.2942 8.89699C18.3778 8.89699 17.5646 8.35917 17.2236 7.52676C16.8755 6.67438 17.1001 5.68049 17.7828 5.05419C17.9978 4.8576 18.024 4.5284 17.8438 4.29989C17.3746 3.7043 16.8416 3.16623 16.2596 2.69995C16.0318 2.51727 15.6972 2.5427 15.4995 2.76144C14.9035 3.42156 13.8328 3.66685 13.0054 3.32166C12.1447 2.95951 11.6015 2.08706 11.6548 1.1506C11.6724 0.856264 11.4572 0.600505 11.1639 0.56634C10.4169 0.479847 9.66326 0.477339 8.91406 0.560459C8.62448 0.592461 8.40946 0.842166 8.41906 1.13278C8.4515 2.06007 7.90209 2.91713 7.04971 3.2663C6.23226 3.60025 5.16901 3.35677 4.57419 2.70245C4.3776 2.48691 4.04884 2.46045 3.81955 2.63923C3.22032 3.10949 2.67533 3.64791 2.20187 4.23865C2.01738 4.46829 2.04463 4.80112 2.26146 4.99841C2.95764 5.62885 3.18209 6.6313 2.82064 7.49364C2.47553 8.31575 1.62193 8.84535 0.644825 8.84535C0.327742 8.83514 0.102082 9.04817 0.0670529 9.33654C-0.0208239 10.0876 -0.0217753 10.8532 0.0628147 11.6104C0.0943846 11.8927 0.431966 12.1023 0.718603 12.1023C1.58959 12.0802 2.42528 12.619 2.77635 13.4725C3.1257 14.3248 2.90082 15.3183 2.21701 15.9455C2.00311 16.1421 1.97578 16.4705 2.15637 16.6987C2.62075 17.2906 3.15424 17.829 3.73807 18.2993C3.96727 18.4839 4.30062 18.458 4.49929 18.239C5.09765 17.5773 6.16817 17.3325 6.99219 17.6783C7.85539 18.0395 8.39839 18.9119 8.34537 19.8486C8.32798 20.143 8.5437 20.3995 8.83596 20.4329C9.21826 20.4776 9.60254 20.4997 9.98804 20.4997C10.3539 20.4997 10.7199 20.4798 11.0858 20.439C11.3757 20.407 11.5904 20.1571 11.5806 19.8664C11.5472 18.9395 12.0978 18.0824 12.9491 17.7339C13.772 17.3978 14.8305 17.6437 15.4257 18.2971C15.6233 18.5122 15.9501 18.5383 16.1803 18.3603C16.7785 17.8912 17.3225 17.353 17.798 16.7607C17.9827 16.5315 17.9565 16.1983 17.7384 16.0006C17.0424 15.3706 16.8167 14.3677 17.1782 13.5063C17.5179 12.6952 18.3398 12.1507 19.2237 12.1507L19.3474 12.154C19.6344 12.1772 19.8981 11.9562 19.9328 11.6635C20.0211 10.9117 20.0221 10.147 19.9371 9.38956ZM10.0001 16.2649C6.816 16.2649 4.23497 13.6838 4.23497 10.4999C4.23497 7.3159 6.81609 4.73486 10.0001 4.73486C13.184 4.73486 15.7652 7.3159 15.7652 10.4999C15.7652 11.5806 15.4672 12.5914 14.9497 13.4558L12.4253 10.9314C12.6081 10.5005 12.7046 10.0333 12.7045 9.55122C12.7045 8.60715 12.3368 7.71964 11.6692 7.05218C11.0017 6.38471 10.1142 6.01712 9.17034 6.01712C8.85533 6.01712 8.54179 6.05898 8.23846 6.14158C8.10561 6.17782 7.99698 6.28732 7.9616 6.42044C7.92545 6.55658 7.96619 6.69609 8.07257 6.80256C8.07257 6.80256 9.31885 8.05844 9.73583 8.47533C9.77951 8.51901 9.77942 8.62323 9.77328 8.66077L9.76939 8.68819C9.72735 9.1466 9.64631 9.69687 9.57945 9.90835C9.57045 9.91725 9.56198 9.92478 9.55281 9.93395C9.54321 9.94355 9.53439 9.9528 9.52513 9.96232C9.31089 10.0311 8.75215 10.1131 8.28647 10.1548L8.28655 10.1523L8.26562 10.1575C8.2619 10.158 8.25498 10.1585 8.24582 10.1585C8.19548 10.1585 8.12144 10.1444 8.05415 10.0772C7.62013 9.64316 6.42272 8.45431 6.42272 8.45431C6.3153 8.34724 6.2051 8.32475 6.13167 8.32475C5.9605 8.32475 5.80724 8.44843 5.75897 8.62583C5.42935 9.84564 5.77878 11.1577 6.67113 12.0502C7.33877 12.7177 8.22636 13.0853 9.17043 13.0853C9.65254 13.0853 10.1197 12.9889 10.5505 12.8061L13.1023 15.3579C12.2064 15.9312 11.1425 16.2649 10.0001 16.2649Z" />
</symbol>

<symbol id="icon-sale" viewBox="0 0 20 21">
<path d="M17.8448 0.5H13.217C12.2011 0.5 10.8424 1.06274 10.1242 1.78113L0.629272 11.2759C0.223389 11.6816 0 12.2227 0 12.7997C0 13.3766 0.223541 13.9177 0.629272 14.3234L6.17645 19.8707C6.58218 20.2765 7.12341 20.5 7.7002 20.5C8.27713 20.5 8.81821 20.2765 9.22409 19.8707L18.7189 10.3758C19.4373 9.65756 20 8.29892 20 7.28299V2.65485C19.9998 1.46664 19.0331 0.5 17.8448 0.5ZM16.7216 4.64062C16.6127 4.75003 16.4615 4.81244 16.3072 4.81244C16.153 4.81244 16.002 4.74988 15.8931 4.64062C15.7837 4.53168 15.7213 4.38077 15.7213 4.2265C15.7213 4.07208 15.7838 3.92102 15.8931 3.81207C16.0017 3.70312 16.153 3.64056 16.3072 3.64056C16.4615 3.64056 16.6127 3.70312 16.7216 3.81207C16.8306 3.92102 16.8932 4.07224 16.8932 4.2265C16.8932 4.38077 16.8306 4.53168 16.7216 4.64062Z" ></path>
<path d="M5.44182 13.4487C5.2288 13.2359 5.28206 12.9252 5.60142 12.6055C5.97435 12.2328 6.24504 12.2993 6.38267 12.1618C6.54243 12.0021 6.40922 11.7268 6.30714 11.6249C6.01417 11.3319 5.37071 11.8511 5.10887 12.113C4.59846 12.6234 4.25682 13.4178 4.91798 14.0791C5.96977 15.1309 7.19032 13.5021 7.85606 14.1679C8.12232 14.4341 8.01139 14.7846 7.74497 15.0511C7.2924 15.5036 6.83082 15.2818 6.64878 15.4637C6.5113 15.6013 6.58226 15.9031 6.70646 16.0275C6.96388 16.2849 7.70072 16.134 8.28208 15.5525C8.89457 14.9401 9.00993 14.1677 8.37531 13.5331C7.22587 12.3837 5.99205 13.9993 5.44182 13.4487Z" fill="white"></path>
<path d="M11.646 11.5409L7.99774 9.60593C7.8247 9.5127 7.59842 9.61478 7.42981 9.78354C7.26562 9.94757 7.16339 10.174 7.25662 10.3472L9.19159 13.9953C9.20486 14.0174 9.21829 14.0395 9.22714 14.0485C9.3692 14.1904 9.67544 14.0795 9.83062 13.9242C9.92828 13.8267 9.97284 13.72 9.91073 13.6135L9.48898 12.8547L10.5054 11.8383L11.2642 12.26C11.3708 12.322 11.4772 12.2777 11.5749 12.1801C11.7302 12.0247 11.8367 11.7139 11.6991 11.5764C11.6859 11.5632 11.6681 11.5542 11.646 11.5409ZM9.15619 12.2822L8.17978 10.5334L9.92843 11.5099L9.15619 12.2822Z" fill="white"></path>
<path d="M13.3988 9.34407L12.3159 10.427L9.75518 7.8661C9.63083 7.7419 9.43124 7.83513 9.28918 7.97703C9.1427 8.12352 9.05389 8.31883 9.1781 8.44319L12.0629 11.328C12.1827 11.4478 12.3692 11.3857 12.4979 11.2569L13.9048 9.85005C14.0202 9.73469 13.9491 9.54823 13.8249 9.42402C13.6962 9.29524 13.5143 9.22856 13.3988 9.34407Z" fill="white"></path>
<path d="M16.1595 7.09868C16.0218 6.96105 15.8354 6.90779 15.72 7.02315L14.4641 8.2791L13.572 7.38707L14.2466 6.71248C14.3708 6.58828 14.3087 6.41066 14.2066 6.30858C14.0869 6.1888 13.9092 6.14455 13.7939 6.25991L13.1193 6.93435L12.2317 6.04674L13.4876 4.79094C13.603 4.67543 13.5497 4.48912 13.4123 4.35149C13.2923 4.23171 13.106 4.1606 12.9817 4.28481L11.4018 5.86486C11.273 5.99349 11.2109 6.17995 11.3308 6.29973L14.2111 9.17998C14.331 9.29992 14.5173 9.23781 14.6461 9.10903L16.226 7.52913C16.3502 7.40493 16.2792 7.21846 16.1595 7.09868Z" fill="white"></path>
</symbol>

<symbol id="icon-news" viewBox="0 0 24 24">
<path d="M22.49,4.2h-.93V3.69a1.51,1.51,0,0,0-1.51-1.5h-.77v-.7A1.5,1.5,0,0,0,17.77,0H1.51A1.5,1.5,0,0,0,0,1.49V20.73A3.3,3.3,0,0,0,3.32,24H21.13A3.2,3.2,0,0,0,24,20.56V5.69A1.5,1.5,0,0,0,22.49,4.2ZM21.05,21.25a.5.5,0,0,0,.51-.5V5.21h.93a.48.48,0,0,1,.49.48V20.56A2.2,2.2,0,0,1,21.13,23a2.2,2.2,0,0,1-1.85-2.43V3.21h.77a.48.48,0,0,1,.49.48V20.75A.5.5,0,0,0,21.05,21.25ZM19.1,23H3.32A2.29,2.29,0,0,1,1,20.73V1.49A.49.49,0,0,1,1.51,1H17.77a.49.49,0,0,1,.49.48V20.56A3.77,3.77,0,0,0,19.1,23Z"/><path d="M3.24,16.47H9.52a1,1,0,0,0,1-1V9.22a1,1,0,0,0-1-1H3.24a1,1,0,0,0-1,1v6.26A1,1,0,0,0,3.24,16.47Zm0-1V9.25l6.23,0,0,6.23Z"/><path d="M16.44,8.24H12.36a.51.51,0,0,0-.51.51.5.5,0,0,0,.51.5h4.08a.5.5,0,0,0,.51-.5A.51.51,0,0,0,16.44,8.24Z"/><path d="M16.44,10.64H12.36a.51.51,0,0,0,0,1h4.08a.51.51,0,0,0,0-1Z"/><path d="M16.44,13.05H12.36a.51.51,0,1,0,0,1h4.08a.51.51,0,1,0,0-1Z"/><path d="M16.44,15.45H12.36a.51.51,0,0,0,0,1h4.08a.51.51,0,0,0,0-1Z"/><path d="M16.44,17.86H2.76a.5.5,0,0,0-.51.5.51.51,0,0,0,.51.51H16.44a.51.51,0,0,0,.51-.51A.5.5,0,0,0,16.44,17.86Z"/><path d="M16.44,20.26H2.76a.51.51,0,0,0-.51.51.5.5,0,0,0,.51.5H16.44a.5.5,0,0,0,.51-.5A.51.51,0,0,0,16.44,20.26Z"/><path d="M2.76,6.92a.51.51,0,0,0,.51-.51V4.64L4.83,6.71a.52.52,0,0,0,.41.21.38.38,0,0,0,.16,0,.5.5,0,0,0,.35-.48V3.12a.51.51,0,0,0-1,0V4.89L3.17,2.81a.51.51,0,0,0-.57-.17.5.5,0,0,0-.35.48V6.41A.51.51,0,0,0,2.76,6.92Z"/><path d="M6.69,6.92H8.38a.51.51,0,1,0,0-1H7.2V5.27H8.38a.51.51,0,1,0,0-1H7.2V3.62H8.38a.5.5,0,0,0,.51-.5.51.51,0,0,0-.51-.51H6.69a.51.51,0,0,0-.51.51V6.41A.51.51,0,0,0,6.69,6.92Z"/><path d="M9.91,6.53a.5.5,0,0,0,.48.39h0a.52.52,0,0,0,.49-.35l.62-1.85.61,1.85a.52.52,0,0,0,.5.35h0a.5.5,0,0,0,.47-.39l.78-3.3a.51.51,0,0,0-.06-.38.5.5,0,0,0-.32-.22.5.5,0,0,0-.61.37l-.37,1.55L12,3a.5.5,0,0,0-.48-.35A.52.52,0,0,0,11,3l-.53,1.59L10.12,3a.49.49,0,0,0-.61-.37.52.52,0,0,0-.32.22.51.51,0,0,0-.06.38Z"/><path d="M15.61,4.26H15.2a.32.32,0,0,1-.33-.32.33.33,0,0,1,.33-.32h1a.5.5,0,0,0,.51-.5.51.51,0,0,0-.51-.51h-1a1.33,1.33,0,1,0,0,2.66h.41a.32.32,0,1,1,0,.63H14.36a.51.51,0,0,0,0,1h1.25a1.33,1.33,0,1,0,0-2.66Z"/>
</symbol>

<symbol id="icon-chevron-left" viewBox="0 0 30 30">
<path d="M10,12l1.16,1.11,7.59,7.66c.07.08.15.15.21.23a.79.79,0,0,1,0,1.14c-.24.27-.52.5-.77.75l-.89.84a.69.69,0,0,1-1,0,2.89,2.89,0,0,1-.32-.29L5.25,12.73A3.45,3.45,0,0,1,5,12.45a.7.7,0,0,1,0-.9,3.45,3.45,0,0,1,.26-.28L16,.46a2.06,2.06,0,0,1,.43-.35.66.66,0,0,1,.85.1L18.82,1.7a.88.88,0,0,1,0,1.42l-8.59,8.67Z" />
</symbol>

<symbol id="icon-chevron-up" viewBox="0 0 35 21">
<path d="M12,5.13l-.22.2L3.15,13.9c-.61.6-1,.6-1.58,0L.35,12.59c-.47-.5-.47-.83,0-1.33l2.7-2.69L11.25.46c.61-.61.89-.61,1.5,0l10.77,10.7c.1.1.2.21.29.32a.68.68,0,0,1,0,1c-.46.49-.92,1-1.39,1.46s-.94.58-1.5,0L14,7.12,12.19,5.3Z"/>
</symbol>


<symbol id="icon-plus" viewBox="0 0 20 20">
<path d="M15.9187 9.83092L15.9187 8.16922L9.33085 8.16922L9.33085 1.58134H7.66915L7.66915 8.16922L1.08127 8.16922L1.08127 9.83092L7.66915 9.83092L7.66915 16.4188H9.33085L9.33085 9.83092L15.9187 9.83092Z" />
</symbol>

<symbol id="icon-prepay" viewBox="0 0 64 39">
<path d="M9.73752e-06 38.9324H53.1079L64 0H10.8921L9.73752e-06 38.9324ZM13.808 3.84369H58.9334L58.1253 6.5H12.9999L13.808 3.84369ZM57.4999 9L56.6253 12H11.4999L12.3746 9H57.4999ZM50.192 35.0887H5.06664L10.8746 14.5H55.9999L50.192 35.0887Z" />
<path d="M14.9249 28.0364H10.9336L9.85825 31.8801H13.8495L14.9249 28.0364Z" />
</symbol>

<symbol id="icon-refund" viewBox="0 0 55 32">
<path d="M0.500153 26H5.00014L3.1826 31.7219H46.6621L54.2567 4.80592H48.0731L49.4084 0.5L45.3493 0.5H7.91538L0.500153 26ZM4.5351 21.9159L5.03735 20.1207L5.53959 18.3255L9.69671 3.46644H40.6606H42.5248H44.3889H45.7241L45.3493 4.80592H44.0142H42.15H40.2859H10.7129L6.93056 18.3256L6.42831 20.1208L5.92607 21.916L5.56637 23.2017H4.17539L4.5351 21.9159ZM43.9469 28.1315H7.91538L8.29013 26.792L8.79237 24.9968L9.29461 23.2016L9.65431 21.9159L10.1566 20.1207L10.6588 18.3255L13.4367 8.39634H39.2814H41.1455H43.0097H44.3449H46.209H48.0731H49.5155L43.9469 28.1315Z"></path> <path d="M31.5353 14.3047H35.3325L36.2926 10.8727H32.4954L32.8417 9.63525H29.2778L28.9316 10.8727H24.3721L22.287 18.3254L21.8455 19.9035H26.4051L26.3443 20.1206L25.8421 21.9158L25.7989 22.0701H21.931L21.6145 23.2015L21.1122 24.9967L20.9708 25.5022H24.8387L24.4779 26.7919H28.0417L28.4025 25.5022H32.8379L32.9793 24.9967L33.4816 23.2015L33.8413 21.9158L34.3435 20.1206L34.8457 18.3254L35.3644 16.4715H30.9291L31.5353 14.3047ZM30.2774 21.9158L30.2342 22.0701H29.3627L29.4059 21.9158L29.9081 20.1206L29.9689 19.9035H30.8404L30.7796 20.1206L30.2774 21.9158ZM26.3695 16.4715L26.9757 14.3048H27.9714L27.3653 16.4715H26.3695Z"></path>
</symbol>

<symbol id="icon-shipping" viewBox="0 0 72 39">
<path d="M48.9844 3.80453H20.6917L21.7561 0H53.9512L52 6.5L51 8L49.2289 13.7914L49.2289 15.1261H58.5L63.2257 13.7914L66.4656 19.7821L62.6866 33.2896H12.4427L13.5071 29.4851H59.8485L62.1898 21.1166L60.2857 17.596H45.126L48.9844 3.80453Z" ></path> <path d="M48.8514 4.28027H59.6664L64.8191 17.5961H45.126L48.8514 4.28027ZM51 8.0848L49.5 14.5H58.9079L56.4842 8.0848H51Z" ></path> <path d="M57.986 30.9118C56.8103 35.1142 52.3628 38.5209 48.0523 38.5209C43.7418 38.5209 41.2005 35.1142 42.3762 30.9118C43.5519 26.7094 47.9994 23.3027 52.3099 23.3027C56.6204 23.3027 59.1617 26.7094 57.986 30.9118Z" fill="#F0F3FC"></path> <path d="M49.1167 34.7163C51.272 34.7163 53.4957 33.013 54.0835 30.9118C54.6714 28.8106 53.4008 27.1073 51.2455 27.1073C49.0902 27.1073 46.8665 28.8106 46.2787 30.9118C45.6908 33.013 46.9615 34.7163 49.1167 34.7163ZM48.0523 38.5209C52.3628 38.5209 56.8103 35.1142 57.986 30.9118C59.1617 26.7094 56.6204 23.3027 52.3099 23.3027C47.9994 23.3027 43.5519 26.7094 42.3762 30.9118C41.2005 35.1142 43.7418 38.5209 48.0523 38.5209Z" ></path> <path d="M32.62 30.9118C31.4443 35.1142 26.9969 38.5209 22.6864 38.5209C18.3759 38.5209 15.8346 35.1142 17.0103 30.9118C18.186 26.7094 22.6334 23.3027 26.9439 23.3027C31.2544 23.3027 33.7957 26.7094 32.62 30.9118Z" fill="#F0F3FC"></path> <path d="M23.7508 34.7163C25.906 34.7163 28.1297 33.013 28.7176 30.9118C29.3054 28.8106 28.0348 27.1073 25.8795 27.1073C23.7243 27.1073 21.5006 28.8106 20.9127 30.9118C20.3249 33.013 21.5955 34.7163 23.7508 34.7163ZM22.6864 38.5209C26.9969 38.5209 31.4443 35.1142 32.62 30.9118C33.7957 26.7094 31.2544 23.3027 26.9439 23.3027C22.6334 23.3027 18.186 26.7094 17.0103 30.9118C15.8346 35.1142 18.3759 38.5209 22.6864 38.5209Z" ></path> <path d="M16.1241 6.18213L30.2876 6.18213L29.2233 9.98666L15.0597 9.98666L16.1241 6.18213Z" ></path> <path d="M8.14159 13.7915L25.7875 13.7915L24.6459 16.5L7 16.5L8.14159 13.7915Z" ></path> <path d="M8.93956 21.4004L18.6957 21.4004L17.7561 24L8 24L8.93956 21.4004Z" ></path>
</symbol>

<symbol id="icon-support" viewBox="0 0 64 64">
<path fill-rule="evenodd" clip-rule="evenodd" d="M50.6538 44.9597H22.4736L11.7289 52.3122L6.8905 55.6231L8.18165 50.5243L8.60884 48.8373L9.59075 44.9597H6.65381H5.59075H2.65381L3.63571 41.0821L10.0181 15.8776L11 12H15H59H63L62.0181 15.8776L55.6357 41.0821L54.6538 44.9597H50.6538ZM20.623 42.0108L13.02 47.2134L13.5907 44.9597L14.5727 41.0821H10.5727H7.63571L14.0181 15.8776H58.0181L51.6357 41.0821H23.4555H21.9802L20.623 42.0108ZM24.5632 25.5718H18.5632L17.0904 31.3882H23.0904L24.5632 25.5718ZM30.5632 25.5718H36.5632L35.0904 31.3882H29.0904L30.5632 25.5718ZM48.5632 25.5718H42.5632L41.0904 31.3882H47.0904L48.5632 25.5718Z"></path>
</symbol>

<symbol id="icon-star" viewBox="0 0 24 23">
<path d="M12,0a1.4,1.4,0,0,1,1.35.9q1.39,2.84,2.78,5.67a.31.31,0,0,0,.25.19c2.13.31,4.25.64,6.38,1a1.39,1.39,0,0,1,1.14,1.92,1.63,1.63,0,0,1-.41.57l-4.55,4.43a.31.31,0,0,0-.1.3c.36,2.08.7,4.17,1.08,6.25A1.44,1.44,0,0,1,18.46,23a1.85,1.85,0,0,1-.71-.23q-2.8-1.44-5.59-2.9a.3.3,0,0,0-.33,0c-1.93,1-3.87,2-5.8,3a1.4,1.4,0,0,1-2-1.08,6.53,6.53,0,0,1,.13-1.24c.29-1.79.59-3.59.92-5.37a.68.68,0,0,0-.24-.71C3.4,13.05,2,11.61.47,10.19a1.48,1.48,0,0,1,0-2.14,1.65,1.65,0,0,1,1-.36l6.23-1a.31.31,0,0,0,.18-.16L10.64.9A1.42,1.42,0,0,1,12,0Z" />
</symbol>

<symbol id="icon-close" viewBox="0 0 24 24">
<path d="M12,15.53a1.66,1.66,0,0,1-.16.24L4,23.45c-.1.1-.2.2-.31.29a.87.87,0,0,1-1.23,0C1.76,23,1,22.28.3,21.54a.87.87,0,0,1,0-1.33l7.89-8c.06-.06.15-.11.24-.19l-.22-.24Q4.34,7.88.47,4A2.08,2.08,0,0,1,0,3.26a.78.78,0,0,1,.27-.8l2-2A1,1,0,0,1,4,.45l6.07,6c.65.65,1.28,1.31,1.93,2l.23-.22L19.93.56c.1-.1.2-.2.31-.29a.88.88,0,0,1,1.27,0c.4.35.77.74,1.14,1.12s.71.71,1.06,1.07a.86.86,0,0,1,0,1.24c-.1.12-.21.24-.32.35l-7.68,7.75-.17.19.18.19,7.68,7.75a4.51,4.51,0,0,1,.4.47.76.76,0,0,1,0,.92,1.21,1.21,0,0,1-.2.26c-.7.7-1.4,1.41-2.12,2.1a.85.85,0,0,1-1.31,0c-1.06-1-2.1-2.06-3.15-3.09l-4.88-4.84Z" />
</symbol>

<symbol id="icon-bin" viewBox="0 0 21.86 24">
<path d="M2.14,6.84H1.28A1.29,1.29,0,0,1,.05,5.91,1.27,1.27,0,0,1,1.3,4.29H5.37v-.5a4.1,4.1,0,0,1,.17-1.43A3.36,3.36,0,0,1,8.19.06,2.78,2.78,0,0,1,8.83,0c1.5,0,3,0,4.49,0a3.15,3.15,0,0,1,2.22,1,3.43,3.43,0,0,1,.95,2.51v.72h4.05a1.28,1.28,0,1,1,0,2.55h-.87v.27c0,4.45,0,8.9,0,13.35a3.36,3.36,0,0,1-1.63,3,3.42,3.42,0,0,1-1.87.51H5.65a3.38,3.38,0,0,1-2.74-1.27,3.34,3.34,0,0,1-.76-2.19c0-2.75,0-5.51,0-8.26V6.84Zm2.53,6.92v4.41c0,.76,0,1.52,0,2.28a.91.91,0,0,0,.93,1H16.24a1,1,0,0,0,.38-.08,1,1,0,0,0,.56-1V7.1c0-.26,0-.26-.26-.26h-12c-.25,0-.26,0-.26.26ZM14,4.27V3.43a.9.9,0,0,0-.9-.9H8.83a.84.84,0,0,0-.9.73,8.49,8.49,0,0,0,0,1Z" /><path d="M10,14.14c0,1.08,0,2.16,0,3.24a1.17,1.17,0,0,1-.74,1.14,1.22,1.22,0,0,1-1.36-.21,1.16,1.16,0,0,1-.42-.92c0-2.16,0-4.33,0-6.49a1.26,1.26,0,0,1,2.52,0c0,1.09,0,2.18,0,3.27Z" /><path d="M11.81,14.14c0-1.07,0-2.15,0-3.22a1.24,1.24,0,0,1,1.29-1.26,1.26,1.26,0,0,1,1.23,1.24v6.49a1.25,1.25,0,0,1-1.24,1.24,1.23,1.23,0,0,1-1.28-1.2c0-1.09,0-2.19,0-3.29Z" />
</symbol>


<symbol id="icon-check-round" viewBox="0 0 24 24">
<path d="M12,0A12,12,0,1,1,0,12,12,12,0,0,1,12,0ZM10.32,13.37l-.09-.12L8.11,11.13c-.08-.08-.13-.08-.21,0L6.36,12.67c-.12.12-.12.12,0,.24l3.85,3.85a1.14,1.14,0,0,0,.11.11.6.6,0,0,0,.08-.08l7.48-7.47c.08-.08.07-.13,0-.2L16.31,7.55l-.09-.08Z"/>
</symbol>
</defs>
</svg>

